<svg id="visual" viewBox="0 0 900 600" width="900" height="600" xmlns="http://www.w3.org/2000/svg" xmlns:xlink="http://www.w3.org/1999/xlink" version="1.1"><rect width="900" height="600" fill="#1f9438"></rect><g><g transform="translate(832 285)"><path d="M88.1 -26.7C101.9 13.8 92.3 63.8 61.3 86.9C30.3 110 -22.1 106.3 -53.5 81.6C-84.8 56.9 -95.2 11.3 -82.8 -27.3C-70.4 -65.8 -35.2 -97.4 1 -97.7C37.2 -98 74.3 -67.1 88.1 -26.7Z" stroke="#9cd348" fill="none" stroke-width="20"></path></g><g transform="translate(218 300)"><path d="M63.2 -19.8C73.1 10.1 66.5 46.2 44.6 62.3C22.7 78.4 -14.4 74.6 -37.6 56.6C-60.8 38.6 -70.1 6.4 -61.5 -21.6C-52.9 -49.6 -26.5 -73.3 0.1 -73.4C26.6 -73.4 53.2 -49.7 63.2 -19.8Z" stroke="#9cd348" fill="none" stroke-width="20"></path></g><g transform="translate(530 70)"><path d="M49.1 -15.8C56.6 7 50.7 34.3 32.9 47.9C15.1 61.4 -14.6 61.2 -33.3 47.3C-52 33.4 -59.7 5.7 -52.3 -16.9C-44.9 -39.6 -22.5 -57.3 -0.8 -57C20.8 -56.8 41.7 -38.5 49.1 -15.8Z" stroke="#9cd348" fill="none" stroke-width="20"></path></g></g></svg>