<svg id="visual" viewBox="0 0 900 600" width="900" height="600" xmlns="http://www.w3.org/2000/svg" xmlns:xlink="http://www.w3.org/1999/xlink" version="1.1"><path d="M0 67L300 115L600 169L900 151L900 0L600 0L300 0L0 0Z" fill="#038373"></path><path d="M0 109L300 175L600 247L900 175L900 149L600 167L300 113L0 65Z" fill="#008d79"></path><path d="M0 187L300 223L600 283L900 265L900 173L600 245L300 173L0 107Z" fill="#00977e"></path><path d="M0 271L300 253L600 361L900 295L900 263L600 281L300 221L0 185Z" fill="#00a282"></path><path d="M0 343L300 343L600 487L900 385L900 293L600 359L300 251L0 269Z" fill="#00ac86"></path><path d="M0 385L300 391L600 511L900 433L900 383L600 485L300 341L0 341Z" fill="#00b789"></path><path d="M0 451L300 421L600 541L900 457L900 431L600 509L300 389L0 383Z" fill="#00c18c"></path><path d="M0 601L300 601L600 601L900 601L900 455L600 539L300 419L0 449Z" fill="#00cc8e"></path></svg>